<svg xmlns="http://www.w3.org/2000/svg" version="1.1" xmlns:xlink="http://www.w3.org/1999/xlink" xmlns:svgjs="http://svgjs.dev/svgjs" width="396" height="396"><svg width="396" height="396" viewBox="0 0 396 396" fill="none" xmlns="http://www.w3.org/2000/svg">
<rect width="396" height="396" rx="198" fill="#18191B"></rect>
<path d="M161.229 156.108C193.187 157.696 194.273 179.467 202.449 170.864C206.469 165.817 211.203 161.41 217.544 159.329C227.356 155.928 238.241 155.74 248.34 157.9C254.672 159.158 260.227 162.63 265.439 166.289C272.862 170.718 275.267 159.839 291.428 157.353C309.745 153.977 339.843 155.49 342.409 178.761C342.447 182.684 340.777 185.086 336.782 185.633C332.851 186.147 328.298 186.105 324.303 185.633C319.7 185.153 316.546 181.51 312.42 179.755C307.825 177.921 301.404 177.319 297.279 180.411C293.533 184.167 299.646 187.325 303.087 187.91C315.954 191.002 331.845 190.083 340.921 201.167C346.987 208.979 346.433 220.995 340.286 228.536C334.305 235.877 324.257 238.5 315.13 239.503C306.536 240.326 297.388 240.209 288.896 238.525C283.988 237.853 279.575 235.033 274.705 234.452C271.277 234.109 268.47 236.123 265.709 237.172C253.742 238.208 220.719 237.197 207.653 237.531C202.25 237.878 200.141 235.827 198.522 230.88C196.729 224.341 193.39 226.994 189.387 230.053C174.579 241.947 150.834 242.987 134.293 233.98C130.721 232.434 125.619 226.664 122.33 231.126C119.367 235.53 118.703 237.849 112.683 237.531C102.022 237.519 74.5156 237.569 63.6431 237.544C60.7686 237.694 57.818 236.733 56.1524 234.414C55.2478 233.224 55.0364 231.845 55.0533 230.358C54.9857 218.154 55.0829 177.896 55.0449 166.11C54.3093 159.241 62.7807 158.209 68.2043 158.197C73.184 158.097 80.8522 158.523 82.2472 164.071C83.0419 169.962 82.3233 176.763 82.5515 183.657C82.5558 191.215 82.5177 198.848 82.5515 206.356C81.8583 213.788 89.0108 214.302 94.6668 214.39C99.3717 214.49 102.28 214.816 106.744 214.528C122.08 213.533 108.625 200.356 117.418 180.774C124.422 163.691 143.208 155.068 161.144 156.104H161.229V156.108ZM238.431 178.476C232.12 177.206 228.59 181.468 224.003 184.706C222.059 186.005 219.793 186.628 217.464 186.795C211.423 187.334 203.649 185.366 203.108 193.408C202.952 196.162 202.652 202.625 205.171 204.037C207.056 204.793 209.001 203.389 210.692 202.445C218.757 196.884 228.146 194.093 236.875 190.007C238.82 189.009 240.857 187.668 241.973 185.876C243.99 182.784 242.151 179.224 238.507 178.497L238.431 178.481V178.476ZM162.172 180.114C147.275 178.084 138.169 191.395 142.777 204.914C146.975 216.972 163.3 219.879 171.814 210.513C180.624 200.657 176.1 182.416 162.248 180.127L162.167 180.114H162.172ZM269.472 195.263C267.02 195.159 265.194 196.563 263.245 198.046C261.398 199.525 259.402 201.137 257.34 202.382C256.414 202.951 255.467 203.473 254.503 203.97C249.358 206.727 243.673 208.24 238.583 211.039C236.038 212.501 233.088 215.66 237.767 216.42C240.841 216.851 243.779 216.65 247.325 216.696C250.174 216.683 253.277 216.725 256.046 216.637C263.19 216.692 264.006 212.226 269.738 210.479C272.52 209.736 275.72 209.844 279.135 209.844C280.703 209.865 282.339 209.903 283.865 210.091C289.264 210.483 292.612 215.158 297.376 217.093C302.385 219.228 312.983 219.742 316.61 215.313C319.598 210.671 312.666 208.11 309.001 207.496C301.759 206.034 294.21 205.161 287.032 203.205C283.371 202.161 279.714 200.632 276.527 198.66C274.291 197.386 272.156 195.543 269.535 195.276H269.472V195.263Z" fill="#D4DCD6"></path>
<path d="M348.346 169.152C347.43 169.152 346.57 168.986 345.767 168.653C344.963 168.304 344.256 167.828 343.645 167.226C343.035 166.623 342.552 165.925 342.199 165.133C341.861 164.34 341.693 163.484 341.693 162.564C341.693 161.645 341.861 160.788 342.199 159.996C342.552 159.203 343.035 158.513 343.645 157.926C344.256 157.324 344.963 156.856 345.767 156.523C346.57 156.174 347.43 156 348.346 156C349.279 156 350.138 156.174 350.926 156.523C351.729 156.856 352.437 157.324 353.047 157.926C353.658 158.513 354.132 159.203 354.47 159.996C354.823 160.788 355 161.645 355 162.564C355 163.484 354.823 164.34 354.47 165.133C354.132 165.925 353.658 166.623 353.047 167.226C352.437 167.828 351.729 168.304 350.926 168.653C350.138 168.986 349.279 169.152 348.346 169.152ZM348.346 167.749C349.375 167.749 350.275 167.511 351.046 167.035C351.818 166.56 352.421 165.933 352.854 165.156C353.304 164.364 353.529 163.5 353.529 162.564C353.529 161.629 353.304 160.772 352.854 159.996C352.421 159.219 351.818 158.6 351.046 158.14C350.275 157.665 349.375 157.427 348.346 157.427C347.35 157.427 346.458 157.665 345.67 158.14C344.883 158.6 344.264 159.219 343.814 159.996C343.38 160.772 343.163 161.629 343.163 162.564C343.163 163.5 343.38 164.364 343.814 165.156C344.264 165.933 344.883 166.56 345.67 167.035C346.458 167.511 347.35 167.749 348.346 167.749ZM345.67 166.132V159.02H348.226C349.142 159.02 349.865 159.219 350.395 159.615C350.926 160.011 351.191 160.551 351.191 161.232C351.191 161.708 351.062 162.128 350.805 162.493C350.548 162.842 350.17 163.079 349.672 163.206L351.456 166.132H349.745L348.202 163.42H347.189V166.132H345.67ZM347.189 162.207H348.298C348.732 162.207 349.07 162.12 349.311 161.946C349.552 161.771 349.672 161.526 349.672 161.209C349.672 160.907 349.552 160.677 349.311 160.519C349.07 160.36 348.732 160.281 348.298 160.281H347.189V162.207Z" fill="#D4DCD6"></path>
</svg><style>@media (prefers-color-scheme: light) { :root { filter: none; } }
@media (prefers-color-scheme: dark) { :root { filter: none; } }
</style></svg>